<?xml version="1.0" standalone="no"?>
<!DOCTYPE svg PUBLIC "-//W3C//DTD SVG 20010904//EN"
 "http://www.w3.org/TR/2001/REC-SVG-20010904/DTD/svg10.dtd">
<svg version="1.0" xmlns="http://www.w3.org/2000/svg"
 width="500.000000pt" height="500.000000pt" viewBox="0 0 500.000000 500.000000"
 preserveAspectRatio="xMidYMid meet">
<metadata>
Created by potrace 1.11, written by Peter Selinger 2001-2013
</metadata>
<g transform="translate(0.000000,500.000000) scale(0.100000,-0.100000)"
fill="#000000" stroke="none">
<path d="M27 4993 c-2 -5 -3 -203 -3 -441 1 -239 -2 -436 -6 -439 -5 -2 -5
-10 -1 -16 4 -7 8 -917 8 -2024 0 -1106 3 -2015 7 -2018 4 -4 941 -7 2083 -7
1197 0 2075 -4 2075 -9 0 -5 0 -12 -1 -15 0 -4 4 -10 9 -13 16 -9 702 -4 747
5 51 12 59 46 20 88 -14 15 -25 31 -25 36 0 5 -8 10 -17 12 -16 3 -17 37 -15
468 1 432 3 497 15 518 3 4 0 18 -5 32 -6 16 -10 728 -10 1928 l0 1902 -2438
0 c-1342 0 -2441 -3 -2443 -7z"/>
</g>
</svg>
